<svg width="894" height="347" xmlns="http://www.w3.org/2000/svg" xmlns:xlink="http://www.w3.org/1999/xlink" xml:space="preserve" overflow="hidden"><g transform="translate(-4350 -6873)"><text fill="#F79646" font-family="Bahnschrift Light SemiCondensed,Bahnschrift Light SemiCondensed_MSFontService,sans-serif" font-weight="300" font-stretch="semi-condensed" font-size="165" transform="matrix(1 0 0 1 4449.34 7087)">lesSDRF</text><g><g><g><path d="M55.7734 25.2083 40.0182 25.2083 66.487 60.5 40.0182 95.7917 55.7734 95.7917 82.2422 60.5 55.7734 25.2083Z" fill="#F79646" fill-opacity="0.4" transform="matrix(1.41322 0 0 1 4446 7079)"/><path d="M9.76823 95.7917 25.5234 95.7917 51.9922 60.5 25.5234 25.2083 9.76823 25.2083 36.237 60.5 9.76823 95.7917Z" fill="#F79646" fill-opacity="0.4" transform="matrix(1.41322 0 0 1 4446 7079)"/><path d="M86.0234 25.2083 70.2682 25.2083 96.737 60.5 70.2682 95.7917 86.0234 95.7917 112.492 60.5 86.0234 25.2083Z" fill="#F79646" fill-opacity="0.4" transform="matrix(1.41322 0 0 1 4446 7079)"/></g></g></g><g><g><g><path d="M55.3125 25 39.6875 25 65.9375 60 39.6875 95 55.3125 95 81.5625 60 55.3125 25Z" fill="#F79646" fill-opacity="0.65" transform="matrix(1.41667 0 0 1 4577 7082)"/><path d="M9.6875 95 25.3125 95 51.5625 60 25.3125 25 9.6875 25 35.9375 60 9.6875 95Z" fill="#F79646" fill-opacity="0.65" transform="matrix(1.41667 0 0 1 4577 7082)"/><path d="M85.3125 25 69.6875 25 95.9375 60 69.6875 95 85.3125 95 111.562 60 85.3125 25Z" fill="#F79646" fill-opacity="0.65" transform="matrix(1.41667 0 0 1 4577 7082)"/></g></g></g><g><g><g><path d="M55.3125 25 39.6875 25 65.9375 60 39.6875 95 55.3125 95 81.5625 60 55.3125 25Z" fill="#F79646" fill-opacity="0.8" transform="matrix(1.41667 0 0 1 4707 7083)"/><path d="M9.6875 95 25.3125 95 51.5625 60 25.3125 25 9.6875 25 35.9375 60 9.6875 95Z" fill="#F79646" fill-opacity="0.8" transform="matrix(1.41667 0 0 1 4707 7083)"/><path d="M85.3125 25 69.6875 25 95.9375 60 69.6875 95 85.3125 95 111.562 60 85.3125 25Z" fill="#F79646" fill-opacity="0.8" transform="matrix(1.41667 0 0 1 4707 7083)"/></g></g></g><g><g><g><path d="M55.3125 25 39.6875 25 65.9375 60 39.6875 95 55.3125 95 81.5625 60 55.3125 25Z" fill="#F79646" transform="matrix(1.425 0 0 1 4837 7082)"/><path d="M9.6875 95 25.3125 95 51.5625 60 25.3125 25 9.6875 25 35.9375 60 9.6875 95Z" fill="#F79646" transform="matrix(1.425 0 0 1 4837 7082)"/><path d="M85.3125 25 69.6875 25 95.9375 60 69.6875 95 85.3125 95 111.562 60 85.3125 25Z" fill="#F79646" transform="matrix(1.425 0 0 1 4837 7082)"/></g></g></g></g></svg>